<mxfile host="app.diagrams.net" agent="Mozilla/5.0 (Windows NT 10.0; Win64; x64) AppleWebKit/537.36 (KHTML, like Gecko) Chrome/125.0.0.0 Safari/537.36" version="28.1.0">
  <diagram name="Page-1" id="nyhaTgFbLSo5L8F2odN6">
    <mxGraphModel dx="1042" dy="596" grid="1" gridSize="10" guides="1" tooltips="1" connect="0" arrows="1" fold="1" page="1" pageScale="1" pageWidth="1169" pageHeight="827" background="light-dark(#FFFFFF,#FFFFFF)" math="0" shadow="0">
      <root>
        <mxCell id="0" />
        <mxCell id="1" parent="0" />
        <mxCell id="7J4mst942xka8f7Hf3pl-36" value="&lt;font&gt;&lt;span style=&quot;font-size: 16px;&quot;&gt;CUSTOMER&lt;/span&gt;&lt;/font&gt;" style="text;html=1;align=center;verticalAlign=middle;resizable=0;points=[];autosize=1;strokeColor=none;fillColor=none;fontColor=light-dark(#000000,#000000);" parent="1" vertex="1">
          <mxGeometry x="30" y="20" width="110" height="30" as="geometry" />
        </mxCell>
        <mxCell id="7J4mst942xka8f7Hf3pl-37" value="" style="group" parent="1" vertex="1" connectable="0">
          <mxGeometry x="40" y="50" width="1030" height="50" as="geometry" />
        </mxCell>
        <mxCell id="7J4mst942xka8f7Hf3pl-9" value="&lt;u&gt;&lt;font style=&quot;font-size: 16px;&quot;&gt;Customer_ID&lt;/font&gt;&lt;/u&gt;" style="whiteSpace=wrap;html=1;align=center;fillColor=none;fontColor=light-dark(#000000,#000000);labelBorderColor=none;strokeColor=light-dark(#000000,#000000);" parent="7J4mst942xka8f7Hf3pl-37" vertex="1">
          <mxGeometry width="110" height="50" as="geometry" />
        </mxCell>
        <mxCell id="7J4mst942xka8f7Hf3pl-25" value="&lt;span style=&quot;font-size: 16px;&quot;&gt;First_Name&lt;/span&gt;" style="whiteSpace=wrap;html=1;align=center;fillColor=none;fontColor=light-dark(#000000,#000000);labelBorderColor=none;strokeColor=light-dark(#000000,#000000);" parent="7J4mst942xka8f7Hf3pl-37" vertex="1">
          <mxGeometry x="110" width="103.33" height="50" as="geometry" />
        </mxCell>
        <mxCell id="7J4mst942xka8f7Hf3pl-26" value="&lt;span style=&quot;font-size: 16px;&quot;&gt;Middle_Name&lt;/span&gt;" style="whiteSpace=wrap;html=1;align=center;fillColor=none;fontColor=light-dark(#000000,#000000);labelBorderColor=none;strokeColor=light-dark(#000000,#000000);" parent="7J4mst942xka8f7Hf3pl-37" vertex="1">
          <mxGeometry x="213.32999999999998" width="116.67" height="50" as="geometry" />
        </mxCell>
        <mxCell id="7J4mst942xka8f7Hf3pl-27" value="&lt;span style=&quot;font-size: 16px;&quot;&gt;Last_Name&lt;/span&gt;" style="whiteSpace=wrap;html=1;align=center;fillColor=none;fontColor=light-dark(#000000,#000000);labelBorderColor=none;strokeColor=light-dark(#000000,#000000);" parent="7J4mst942xka8f7Hf3pl-37" vertex="1">
          <mxGeometry x="330" width="100" height="50" as="geometry" />
        </mxCell>
        <mxCell id="7J4mst942xka8f7Hf3pl-28" value="&lt;span style=&quot;font-size: 16px;&quot;&gt;Email_Address&lt;/span&gt;" style="whiteSpace=wrap;html=1;align=center;fillColor=none;fontColor=light-dark(#000000,#000000);labelBorderColor=none;strokeColor=light-dark(#000000,#000000);" parent="7J4mst942xka8f7Hf3pl-37" vertex="1">
          <mxGeometry x="430" width="130" height="50" as="geometry" />
        </mxCell>
        <mxCell id="7J4mst942xka8f7Hf3pl-29" value="&lt;span style=&quot;font-size: 16px;&quot;&gt;Street_Name&lt;/span&gt;" style="whiteSpace=wrap;html=1;align=center;fillColor=none;fontColor=light-dark(#000000,#000000);labelBorderColor=none;strokeColor=light-dark(#000000,#000000);" parent="7J4mst942xka8f7Hf3pl-37" vertex="1">
          <mxGeometry x="700" width="120" height="50" as="geometry" />
        </mxCell>
        <mxCell id="7J4mst942xka8f7Hf3pl-30" value="&lt;span style=&quot;font-size: 16px;&quot;&gt;Street_Number&lt;/span&gt;" style="whiteSpace=wrap;html=1;align=center;fillColor=none;fontColor=light-dark(#000000,#000000);labelBorderColor=none;strokeColor=light-dark(#000000,#000000);" parent="7J4mst942xka8f7Hf3pl-37" vertex="1">
          <mxGeometry x="820" width="120" height="50" as="geometry" />
        </mxCell>
        <mxCell id="7J4mst942xka8f7Hf3pl-31" value="&lt;span style=&quot;font-size: 16px;&quot;&gt;Zip_Code&lt;/span&gt;" style="whiteSpace=wrap;html=1;align=center;fillColor=none;fontColor=light-dark(#000000,#000000);labelBorderColor=none;strokeColor=light-dark(#000000,#000000);" parent="7J4mst942xka8f7Hf3pl-37" vertex="1">
          <mxGeometry x="940" width="90" height="50" as="geometry" />
        </mxCell>
        <mxCell id="7J4mst942xka8f7Hf3pl-32" value="&lt;span style=&quot;font-size: 16px;&quot;&gt;Phone_Number&lt;/span&gt;" style="whiteSpace=wrap;html=1;align=center;fillColor=none;fontColor=light-dark(#000000,#000000);labelBorderColor=none;strokeColor=light-dark(#000000,#000000);" parent="7J4mst942xka8f7Hf3pl-37" vertex="1">
          <mxGeometry x="560" width="140" height="50" as="geometry" />
        </mxCell>
        <mxCell id="7J4mst942xka8f7Hf3pl-33" style="edgeStyle=orthogonalEdgeStyle;rounded=0;orthogonalLoop=1;jettySize=auto;html=1;" parent="7J4mst942xka8f7Hf3pl-37" source="7J4mst942xka8f7Hf3pl-31" target="7J4mst942xka8f7Hf3pl-31" edge="1">
          <mxGeometry relative="1" as="geometry" />
        </mxCell>
        <mxCell id="7J4mst942xka8f7Hf3pl-51" value="" style="group" parent="1" vertex="1" connectable="0">
          <mxGeometry x="40" y="250" width="930" height="50" as="geometry" />
        </mxCell>
        <mxCell id="7J4mst942xka8f7Hf3pl-52" value="&lt;u&gt;&lt;font style=&quot;font-size: 16px;&quot;&gt;Employee_ID&lt;/font&gt;&lt;/u&gt;" style="whiteSpace=wrap;html=1;align=center;fillColor=none;fontColor=light-dark(#000000,#000000);labelBorderColor=none;strokeColor=light-dark(#000000,#000000);" parent="7J4mst942xka8f7Hf3pl-51" vertex="1">
          <mxGeometry width="110" height="50" as="geometry" />
        </mxCell>
        <mxCell id="7J4mst942xka8f7Hf3pl-53" value="&lt;span style=&quot;font-size: 16px;&quot;&gt;Speciality&lt;/span&gt;" style="whiteSpace=wrap;html=1;align=center;fillColor=none;fontColor=light-dark(#000000,#000000);labelBorderColor=none;strokeColor=light-dark(#000000,#000000);" parent="7J4mst942xka8f7Hf3pl-51" vertex="1">
          <mxGeometry x="110" width="103.33" height="50" as="geometry" />
        </mxCell>
        <mxCell id="7J4mst942xka8f7Hf3pl-54" value="&lt;span style=&quot;font-size: 16px;&quot;&gt;Repair_rate&lt;/span&gt;" style="whiteSpace=wrap;html=1;align=center;fillColor=none;fontColor=light-dark(#000000,#000000);labelBorderColor=none;strokeColor=light-dark(#000000,#000000);" parent="7J4mst942xka8f7Hf3pl-51" vertex="1">
          <mxGeometry x="213.32999999999998" width="116.67" height="50" as="geometry" />
        </mxCell>
        <mxCell id="7J4mst942xka8f7Hf3pl-62" value="" style="group" parent="1" vertex="1" connectable="0">
          <mxGeometry x="40" y="350" width="930" height="50" as="geometry" />
        </mxCell>
        <mxCell id="7J4mst942xka8f7Hf3pl-63" value="&lt;u&gt;&lt;font style=&quot;font-size: 16px;&quot;&gt;Employee_ID&lt;/font&gt;&lt;/u&gt;" style="whiteSpace=wrap;html=1;align=center;fillColor=none;fontColor=light-dark(#000000,#000000);labelBorderColor=none;strokeColor=light-dark(#000000,#000000);" parent="7J4mst942xka8f7Hf3pl-62" vertex="1">
          <mxGeometry width="110" height="50" as="geometry" />
        </mxCell>
        <mxCell id="7J4mst942xka8f7Hf3pl-64" value="&lt;span style=&quot;font-size: 16px;&quot;&gt;Sales_target&lt;/span&gt;" style="whiteSpace=wrap;html=1;align=center;fillColor=none;fontColor=light-dark(#000000,#000000);labelBorderColor=none;strokeColor=light-dark(#000000,#000000);" parent="7J4mst942xka8f7Hf3pl-62" vertex="1">
          <mxGeometry x="110" width="103.33" height="50" as="geometry" />
        </mxCell>
        <mxCell id="7J4mst942xka8f7Hf3pl-74" value="&lt;span style=&quot;font-size: 16px;&quot;&gt;EMPLOYEE&lt;/span&gt;" style="text;html=1;align=center;verticalAlign=middle;resizable=0;points=[];autosize=1;strokeColor=none;fillColor=none;fontColor=light-dark(#000000,#000000);" parent="1" vertex="1">
          <mxGeometry x="31" y="120" width="110" height="30" as="geometry" />
        </mxCell>
        <mxCell id="7J4mst942xka8f7Hf3pl-76" value="&lt;span style=&quot;font-size: 16px;&quot;&gt;REPAIR_TECHNICIAN&lt;/span&gt;" style="text;html=1;align=center;verticalAlign=middle;resizable=0;points=[];autosize=1;strokeColor=none;fillColor=none;fontColor=light-dark(#000000,#000000);" parent="1" vertex="1">
          <mxGeometry x="28.34" y="220" width="190" height="30" as="geometry" />
        </mxCell>
        <mxCell id="7J4mst942xka8f7Hf3pl-77" value="&lt;span style=&quot;font-size: 16px;&quot;&gt;SALES_ASSOCIATE&lt;/span&gt;" style="text;html=1;align=center;verticalAlign=middle;resizable=0;points=[];autosize=1;strokeColor=none;fillColor=none;fontColor=light-dark(#000000,#000000);" parent="1" vertex="1">
          <mxGeometry x="30" y="320" width="170" height="30" as="geometry" />
        </mxCell>
        <mxCell id="7J4mst942xka8f7Hf3pl-103" value="" style="edgeStyle=orthogonalEdgeStyle;rounded=0;orthogonalLoop=1;jettySize=auto;html=1;" parent="1" source="7J4mst942xka8f7Hf3pl-93" edge="1">
          <mxGeometry relative="1" as="geometry">
            <mxPoint x="95" y="550" as="sourcePoint" />
            <mxPoint x="85" y="520" as="targetPoint" />
          </mxGeometry>
        </mxCell>
        <mxCell id="7J4mst942xka8f7Hf3pl-93" value="&lt;u&gt;&lt;font style=&quot;font-size: 16px;&quot;&gt;Serial_Number&lt;/font&gt;&lt;/u&gt;" style="whiteSpace=wrap;html=1;align=center;fillColor=none;fontColor=light-dark(#000000,#000000);labelBorderColor=none;strokeColor=light-dark(#000000,#000000);" parent="1" vertex="1">
          <mxGeometry x="40" y="550" width="120" height="50" as="geometry" />
        </mxCell>
        <mxCell id="7J4mst942xka8f7Hf3pl-94" value="&lt;span style=&quot;font-size: 16px;&quot;&gt;Model_Name&lt;/span&gt;" style="whiteSpace=wrap;html=1;align=center;fillColor=none;fontColor=light-dark(#000000,#000000);labelBorderColor=none;strokeColor=light-dark(#000000,#000000);" parent="1" vertex="1">
          <mxGeometry x="300" y="550" width="110" height="50" as="geometry" />
        </mxCell>
        <mxCell id="7J4mst942xka8f7Hf3pl-95" value="&lt;span style=&quot;font-size: 16px;&quot;&gt;Instrument_type&lt;/span&gt;" style="whiteSpace=wrap;html=1;align=center;fillColor=none;fontColor=light-dark(#000000,#000000);labelBorderColor=none;strokeColor=light-dark(#000000,#000000);" parent="1" vertex="1">
          <mxGeometry x="160" y="550" width="140" height="50" as="geometry" />
        </mxCell>
        <mxCell id="7J4mst942xka8f7Hf3pl-96" value="&lt;span style=&quot;font-size: 16px;&quot;&gt;MRP&lt;/span&gt;" style="whiteSpace=wrap;html=1;align=center;fillColor=none;fontColor=light-dark(#000000,#000000);labelBorderColor=none;strokeColor=light-dark(#000000,#000000);" parent="1" vertex="1">
          <mxGeometry x="410" y="550" width="70" height="50" as="geometry" />
        </mxCell>
        <mxCell id="7J4mst942xka8f7Hf3pl-97" value="&lt;span style=&quot;font-size: 16px;&quot;&gt;Condition&lt;/span&gt;" style="whiteSpace=wrap;html=1;align=center;fillColor=none;fontColor=light-dark(#000000,#000000);labelBorderColor=none;strokeColor=light-dark(#000000,#000000);" parent="1" vertex="1">
          <mxGeometry x="480" y="550" width="90" height="50" as="geometry" />
        </mxCell>
        <mxCell id="7J4mst942xka8f7Hf3pl-104" value="&lt;span style=&quot;font-size: 16px;&quot;&gt;INSTRUMENT&lt;/span&gt;" style="text;html=1;align=center;verticalAlign=middle;resizable=0;points=[];autosize=1;strokeColor=none;fillColor=none;fontColor=light-dark(#000000,#000000);" parent="1" vertex="1">
          <mxGeometry x="28.340000000000003" y="520" width="130" height="30" as="geometry" />
        </mxCell>
        <mxCell id="7J4mst942xka8f7Hf3pl-105" value="" style="group" parent="1" vertex="1" connectable="0">
          <mxGeometry x="30" y="420" width="670" height="80" as="geometry" />
        </mxCell>
        <mxCell id="7J4mst942xka8f7Hf3pl-90" value="&lt;span style=&quot;font-size: 16px;&quot;&gt;SALE&lt;/span&gt;" style="text;html=1;align=center;verticalAlign=middle;resizable=0;points=[];autosize=1;strokeColor=none;fillColor=none;fontColor=light-dark(#000000,#000000);" parent="7J4mst942xka8f7Hf3pl-105" vertex="1">
          <mxGeometry width="60" height="30" as="geometry" />
        </mxCell>
        <mxCell id="7J4mst942xka8f7Hf3pl-91" value="" style="group" parent="7J4mst942xka8f7Hf3pl-105" vertex="1" connectable="0">
          <mxGeometry x="10" y="30" width="660" height="50" as="geometry" />
        </mxCell>
        <mxCell id="7J4mst942xka8f7Hf3pl-79" value="&lt;u&gt;&lt;font style=&quot;font-size: 16px;&quot;&gt;Sale_ID&lt;/font&gt;&lt;/u&gt;" style="whiteSpace=wrap;html=1;align=center;fillColor=none;fontColor=light-dark(#000000,#000000);labelBorderColor=none;strokeColor=light-dark(#000000,#000000);" parent="7J4mst942xka8f7Hf3pl-91" vertex="1">
          <mxGeometry width="80" height="50" as="geometry" />
        </mxCell>
        <mxCell id="7J4mst942xka8f7Hf3pl-80" value="&lt;span style=&quot;font-size: 16px;&quot;&gt;Total_Amount&lt;/span&gt;" style="whiteSpace=wrap;html=1;align=center;fillColor=none;fontColor=light-dark(#000000,#000000);labelBorderColor=none;strokeColor=light-dark(#000000,#000000);" parent="7J4mst942xka8f7Hf3pl-91" vertex="1">
          <mxGeometry x="80" width="120" height="50" as="geometry" />
        </mxCell>
        <mxCell id="7J4mst942xka8f7Hf3pl-81" value="&lt;span style=&quot;font-size: 16px;&quot;&gt;Payment_Method&lt;/span&gt;" style="whiteSpace=wrap;html=1;align=center;fillColor=none;fontColor=light-dark(#000000,#000000);labelBorderColor=none;strokeColor=light-dark(#000000,#000000);" parent="7J4mst942xka8f7Hf3pl-91" vertex="1">
          <mxGeometry x="200" width="140" height="50" as="geometry" />
        </mxCell>
        <mxCell id="7J4mst942xka8f7Hf3pl-82" value="&lt;span style=&quot;font-size: 16px;&quot;&gt;Discount_Applied&lt;/span&gt;" style="whiteSpace=wrap;html=1;align=center;fillColor=none;fontColor=light-dark(#000000,#000000);labelBorderColor=none;strokeColor=light-dark(#000000,#000000);" parent="7J4mst942xka8f7Hf3pl-91" vertex="1">
          <mxGeometry x="430" width="140" height="50" as="geometry" />
        </mxCell>
        <mxCell id="7J4mst942xka8f7Hf3pl-83" value="&lt;span style=&quot;font-size: 16px;&quot;&gt;Sale_Date&lt;/span&gt;" style="whiteSpace=wrap;html=1;align=center;fillColor=none;fontColor=light-dark(#000000,#000000);labelBorderColor=none;strokeColor=light-dark(#000000,#000000);" parent="7J4mst942xka8f7Hf3pl-91" vertex="1">
          <mxGeometry x="340" width="90" height="50" as="geometry" />
        </mxCell>
        <mxCell id="7J4mst942xka8f7Hf3pl-87" value="&lt;span style=&quot;font-size: 16px;&quot;&gt;Sale_Time&lt;/span&gt;" style="whiteSpace=wrap;html=1;align=center;fillColor=none;fontColor=light-dark(#000000,#000000);labelBorderColor=none;strokeColor=light-dark(#000000,#000000);" parent="7J4mst942xka8f7Hf3pl-91" vertex="1">
          <mxGeometry x="570" width="90" height="50" as="geometry" />
        </mxCell>
        <mxCell id="7J4mst942xka8f7Hf3pl-107" value="&lt;span style=&quot;font-size: 16px;&quot;&gt;COMPANY&lt;/span&gt;" style="text;html=1;align=center;verticalAlign=middle;resizable=0;points=[];autosize=1;strokeColor=none;fillColor=none;fontColor=light-dark(#000000,#000000);container=0;" parent="1" vertex="1">
          <mxGeometry x="31" y="620" width="100" height="30" as="geometry" />
        </mxCell>
        <mxCell id="7J4mst942xka8f7Hf3pl-116" value="" style="group" parent="1" vertex="1" connectable="0">
          <mxGeometry x="40" y="650" width="570" height="50" as="geometry" />
        </mxCell>
        <mxCell id="7J4mst942xka8f7Hf3pl-109" value="&lt;u&gt;&lt;font style=&quot;font-size: 16px;&quot;&gt;Company_ID&lt;/font&gt;&lt;/u&gt;" style="whiteSpace=wrap;html=1;align=center;fillColor=none;fontColor=light-dark(#000000,#000000);labelBorderColor=none;strokeColor=light-dark(#000000,#000000);container=0;" parent="7J4mst942xka8f7Hf3pl-116" vertex="1">
          <mxGeometry width="110" height="50" as="geometry" />
        </mxCell>
        <mxCell id="7J4mst942xka8f7Hf3pl-110" value="&lt;span style=&quot;font-size: 16px;&quot;&gt;Company_Name&lt;/span&gt;" style="whiteSpace=wrap;html=1;align=center;fillColor=none;fontColor=light-dark(#000000,#000000);labelBorderColor=none;strokeColor=light-dark(#000000,#000000);container=0;" parent="7J4mst942xka8f7Hf3pl-116" vertex="1">
          <mxGeometry x="110" width="130" height="50" as="geometry" />
        </mxCell>
        <mxCell id="7J4mst942xka8f7Hf3pl-112" value="&lt;span style=&quot;font-size: 16px;&quot;&gt;Website&lt;/span&gt;" style="whiteSpace=wrap;html=1;align=center;fillColor=none;fontColor=light-dark(#000000,#000000);labelBorderColor=none;strokeColor=light-dark(#000000,#000000);container=0;" parent="7J4mst942xka8f7Hf3pl-116" vertex="1">
          <mxGeometry x="485" width="85" height="50" as="geometry" />
        </mxCell>
        <mxCell id="7J4mst942xka8f7Hf3pl-113" value="&lt;span style=&quot;font-size: 16px;&quot;&gt;Email_Address&lt;/span&gt;" style="whiteSpace=wrap;html=1;align=center;fillColor=none;fontColor=light-dark(#000000,#000000);labelBorderColor=none;strokeColor=light-dark(#000000,#000000);container=0;" parent="7J4mst942xka8f7Hf3pl-116" vertex="1">
          <mxGeometry x="370" width="115" height="50" as="geometry" />
        </mxCell>
        <mxCell id="7J4mst942xka8f7Hf3pl-111" value="&lt;span style=&quot;font-size: 16px;&quot;&gt;Phone_Number&lt;/span&gt;" style="whiteSpace=wrap;html=1;align=center;fillColor=none;fontColor=light-dark(#000000,#000000);labelBorderColor=none;strokeColor=light-dark(#000000,#000000);container=0;" parent="7J4mst942xka8f7Hf3pl-116" vertex="1">
          <mxGeometry x="240" width="130" height="50" as="geometry" />
        </mxCell>
        <mxCell id="7J4mst942xka8f7Hf3pl-118" value="&lt;span style=&quot;font-size: 16px;&quot;&gt;REPAIR&lt;/span&gt;" style="text;html=1;align=center;verticalAlign=middle;resizable=0;points=[];autosize=1;strokeColor=none;fillColor=none;fontColor=light-dark(#000000,#000000);" parent="1" vertex="1">
          <mxGeometry x="30" y="720" width="80" height="30" as="geometry" />
        </mxCell>
        <mxCell id="7J4mst942xka8f7Hf3pl-119" value="" style="group" parent="1" vertex="1" connectable="0">
          <mxGeometry x="40" y="750" width="670" height="50" as="geometry" />
        </mxCell>
        <mxCell id="7J4mst942xka8f7Hf3pl-120" value="&lt;u&gt;&lt;font style=&quot;font-size: 16px;&quot;&gt;Repair_ID&lt;/font&gt;&lt;/u&gt;" style="whiteSpace=wrap;html=1;align=center;fillColor=none;fontColor=light-dark(#000000,#000000);labelBorderColor=none;strokeColor=light-dark(#000000,#000000);" parent="7J4mst942xka8f7Hf3pl-119" vertex="1">
          <mxGeometry width="80" height="50" as="geometry" />
        </mxCell>
        <mxCell id="7J4mst942xka8f7Hf3pl-122" value="&lt;span style=&quot;font-size: 16px;&quot;&gt;Completion_Date&lt;/span&gt;" style="whiteSpace=wrap;html=1;align=center;fillColor=none;fontColor=light-dark(#000000,#000000);labelBorderColor=none;strokeColor=light-dark(#000000,#000000);" parent="7J4mst942xka8f7Hf3pl-119" vertex="1">
          <mxGeometry x="290" width="140" height="50" as="geometry" />
        </mxCell>
        <mxCell id="7J4mst942xka8f7Hf3pl-124" value="&lt;span style=&quot;font-size: 16px;&quot;&gt;Request_Date&lt;/span&gt;" style="whiteSpace=wrap;html=1;align=center;fillColor=none;fontColor=light-dark(#000000,#000000);labelBorderColor=none;strokeColor=light-dark(#000000,#000000);" parent="7J4mst942xka8f7Hf3pl-119" vertex="1">
          <mxGeometry x="80" width="110" height="50" as="geometry" />
        </mxCell>
        <mxCell id="7J4mst942xka8f7Hf3pl-121" value="&lt;span style=&quot;font-size: 16px;&quot;&gt;Start_Date&lt;/span&gt;" style="whiteSpace=wrap;html=1;align=center;fillColor=none;fontColor=light-dark(#000000,#000000);labelBorderColor=none;strokeColor=light-dark(#000000,#000000);" parent="7J4mst942xka8f7Hf3pl-119" vertex="1">
          <mxGeometry x="190" width="100" height="50" as="geometry" />
        </mxCell>
        <mxCell id="7J4mst942xka8f7Hf3pl-125" value="&lt;span style=&quot;font-size: 16px;&quot;&gt;Labor_Cost&lt;/span&gt;" style="whiteSpace=wrap;html=1;align=center;fillColor=none;fontColor=light-dark(#000000,#000000);labelBorderColor=none;strokeColor=light-dark(#000000,#000000);" parent="7J4mst942xka8f7Hf3pl-119" vertex="1">
          <mxGeometry x="430" width="100" height="50" as="geometry" />
        </mxCell>
        <mxCell id="7J4mst942xka8f7Hf3pl-123" value="&lt;span style=&quot;font-size: 16px;&quot;&gt;Total_Repair_Cost&lt;/span&gt;" style="whiteSpace=wrap;html=1;align=center;fillColor=none;fontColor=light-dark(#000000,#000000);labelBorderColor=none;strokeColor=light-dark(#000000,#000000);" parent="7J4mst942xka8f7Hf3pl-119" vertex="1">
          <mxGeometry x="530" width="140" height="50" as="geometry" />
        </mxCell>
        <mxCell id="7J4mst942xka8f7Hf3pl-126" value="&lt;span style=&quot;font-size: 16px;&quot;&gt;Repair_Status&lt;/span&gt;" style="whiteSpace=wrap;html=1;align=center;fillColor=none;fontColor=light-dark(#000000,#000000);labelBorderColor=none;strokeColor=light-dark(#000000,#000000);" parent="1" vertex="1">
          <mxGeometry x="710" y="750" width="120" height="50" as="geometry" />
        </mxCell>
        <mxCell id="7J4mst942xka8f7Hf3pl-127" value="&lt;u&gt;&lt;font style=&quot;font-size: 16px;&quot;&gt;Customer_ID&lt;/font&gt;&lt;/u&gt;" style="whiteSpace=wrap;html=1;align=center;fillColor=none;fontColor=light-dark(#000000,#000000);labelBorderColor=none;strokeColor=light-dark(#000000,#000000);" parent="1" vertex="1">
          <mxGeometry x="830" y="750" width="120" height="50" as="geometry" />
        </mxCell>
        <mxCell id="7J4mst942xka8f7Hf3pl-128" value="&lt;u&gt;&lt;font style=&quot;font-size: 16px;&quot;&gt;Employee_ID&lt;/font&gt;&lt;/u&gt;" style="whiteSpace=wrap;html=1;align=center;fillColor=none;fontColor=light-dark(#000000,#000000);labelBorderColor=none;strokeColor=light-dark(#000000,#000000);" parent="1" vertex="1">
          <mxGeometry x="950" y="750" width="120" height="50" as="geometry" />
        </mxCell>
        <mxCell id="7J4mst942xka8f7Hf3pl-129" value="" style="endArrow=classic;html=1;rounded=0;" parent="1" edge="1">
          <mxGeometry width="50" height="50" relative="1" as="geometry">
            <mxPoint x="490" y="500" as="sourcePoint" />
            <mxPoint x="540" y="450" as="targetPoint" />
          </mxGeometry>
        </mxCell>
        <mxCell id="7J4mst942xka8f7Hf3pl-50" value="" style="group" parent="1" vertex="1" connectable="0">
          <mxGeometry x="40" y="160" width="930" height="50" as="geometry" />
        </mxCell>
        <mxCell id="7J4mst942xka8f7Hf3pl-39" value="&lt;u&gt;&lt;font style=&quot;font-size: 16px;&quot;&gt;Employee_ID&lt;/font&gt;&lt;/u&gt;" style="whiteSpace=wrap;html=1;align=center;fillColor=none;fontColor=light-dark(#000000,#000000);labelBorderColor=none;strokeColor=light-dark(#000000,#000000);" parent="7J4mst942xka8f7Hf3pl-50" vertex="1">
          <mxGeometry width="110" height="50" as="geometry" />
        </mxCell>
        <mxCell id="7J4mst942xka8f7Hf3pl-40" value="&lt;span style=&quot;font-size: 16px;&quot;&gt;First_Name&lt;/span&gt;" style="whiteSpace=wrap;html=1;align=center;fillColor=none;fontColor=light-dark(#000000,#000000);labelBorderColor=none;strokeColor=light-dark(#000000,#000000);" parent="7J4mst942xka8f7Hf3pl-50" vertex="1">
          <mxGeometry x="110" width="103.33" height="50" as="geometry" />
        </mxCell>
        <mxCell id="7J4mst942xka8f7Hf3pl-41" value="&lt;span style=&quot;font-size: 16px;&quot;&gt;Middle_Name&lt;/span&gt;" style="whiteSpace=wrap;html=1;align=center;fillColor=none;fontColor=light-dark(#000000,#000000);labelBorderColor=none;strokeColor=light-dark(#000000,#000000);" parent="7J4mst942xka8f7Hf3pl-50" vertex="1">
          <mxGeometry x="213.32999999999998" width="116.67" height="50" as="geometry" />
        </mxCell>
        <mxCell id="7J4mst942xka8f7Hf3pl-42" value="&lt;span style=&quot;font-size: 16px;&quot;&gt;Last_Name&lt;/span&gt;" style="whiteSpace=wrap;html=1;align=center;fillColor=none;fontColor=light-dark(#000000,#000000);labelBorderColor=none;strokeColor=light-dark(#000000,#000000);" parent="7J4mst942xka8f7Hf3pl-50" vertex="1">
          <mxGeometry x="330" width="100" height="50" as="geometry" />
        </mxCell>
        <mxCell id="7J4mst942xka8f7Hf3pl-43" value="&lt;span style=&quot;font-size: 16px;&quot;&gt;Age&lt;/span&gt;" style="whiteSpace=wrap;html=1;align=center;fillColor=none;fontColor=light-dark(#000000,#000000);labelBorderColor=none;strokeColor=light-dark(#000000,#000000);" parent="7J4mst942xka8f7Hf3pl-50" vertex="1">
          <mxGeometry x="430" width="60" height="50" as="geometry" />
        </mxCell>
        <mxCell id="7J4mst942xka8f7Hf3pl-44" value="&lt;span style=&quot;font-size: 16px;&quot;&gt;Salary&lt;/span&gt;" style="whiteSpace=wrap;html=1;align=center;fillColor=none;fontColor=light-dark(#000000,#000000);labelBorderColor=none;strokeColor=light-dark(#000000,#000000);" parent="7J4mst942xka8f7Hf3pl-50" vertex="1">
          <mxGeometry x="620" width="80" height="50" as="geometry" />
        </mxCell>
        <mxCell id="7J4mst942xka8f7Hf3pl-45" value="&lt;span style=&quot;font-size: 16px;&quot;&gt;Date_of_Birth&lt;/span&gt;" style="whiteSpace=wrap;html=1;align=center;fillColor=none;fontColor=light-dark(#000000,#000000);labelBorderColor=none;strokeColor=light-dark(#000000,#000000);" parent="7J4mst942xka8f7Hf3pl-50" vertex="1">
          <mxGeometry x="700" width="120" height="50" as="geometry" />
        </mxCell>
        <mxCell id="7J4mst942xka8f7Hf3pl-46" value="&lt;span style=&quot;font-size: 16px;&quot;&gt;Date_of_Hire&lt;/span&gt;" style="whiteSpace=wrap;html=1;align=center;fillColor=none;fontColor=light-dark(#000000,#000000);labelBorderColor=none;strokeColor=light-dark(#000000,#000000);" parent="7J4mst942xka8f7Hf3pl-50" vertex="1">
          <mxGeometry x="820" width="110" height="50" as="geometry" />
        </mxCell>
        <mxCell id="7J4mst942xka8f7Hf3pl-47" value="&lt;span style=&quot;font-size: 16px;&quot;&gt;Phone_Number&lt;/span&gt;" style="whiteSpace=wrap;html=1;align=center;fillColor=none;fontColor=light-dark(#000000,#000000);labelBorderColor=none;strokeColor=light-dark(#000000,#000000);" parent="7J4mst942xka8f7Hf3pl-50" vertex="1">
          <mxGeometry x="490" width="130" height="50" as="geometry" />
        </mxCell>
        <mxCell id="7J4mst942xka8f7Hf3pl-48" style="edgeStyle=orthogonalEdgeStyle;rounded=0;orthogonalLoop=1;jettySize=auto;html=1;" parent="7J4mst942xka8f7Hf3pl-50" source="7J4mst942xka8f7Hf3pl-46" target="7J4mst942xka8f7Hf3pl-46" edge="1">
          <mxGeometry relative="1" as="geometry" />
        </mxCell>
        <mxCell id="pR0gCyMrxdm7tPhhBdWK-3" value="&lt;u&gt;&lt;font style=&quot;font-size: 16px;&quot;&gt;Customer_ID&lt;/font&gt;&lt;/u&gt;" style="whiteSpace=wrap;html=1;align=center;fillColor=none;fontColor=light-dark(#000000,#000000);labelBorderColor=none;strokeColor=light-dark(#000000,#000000);" parent="1" vertex="1">
          <mxGeometry x="700" y="450" width="120" height="50" as="geometry" />
        </mxCell>
        <mxCell id="pR0gCyMrxdm7tPhhBdWK-5" value="" style="edgeStyle=orthogonalEdgeStyle;rounded=0;orthogonalLoop=1;jettySize=auto;html=1;" parent="1" source="7J4mst942xka8f7Hf3pl-9" target="7J4mst942xka8f7Hf3pl-39" edge="1">
          <mxGeometry relative="1" as="geometry" />
        </mxCell>
        <mxCell id="pR0gCyMrxdm7tPhhBdWK-7" value="&lt;u&gt;&lt;font style=&quot;font-size: 16px;&quot;&gt;Employee_ID&lt;/font&gt;&lt;/u&gt;" style="whiteSpace=wrap;html=1;align=center;fillColor=none;fontColor=light-dark(#000000,#000000);labelBorderColor=none;strokeColor=light-dark(#000000,#000000);" parent="1" vertex="1">
          <mxGeometry x="820" y="450" width="110" height="50" as="geometry" />
        </mxCell>
        <mxCell id="3k31Q986zuv8Z-MiazUL-1" value="&lt;span style=&quot;font-size: 16px;&quot;&gt;Sale_ID&lt;/span&gt;" style="whiteSpace=wrap;html=1;align=center;fillColor=none;fontColor=light-dark(#000000,#000000);labelBorderColor=none;strokeColor=light-dark(#000000,#000000);" vertex="1" parent="1">
          <mxGeometry x="570" y="550" width="90" height="50" as="geometry" />
        </mxCell>
        <mxCell id="3k31Q986zuv8Z-MiazUL-2" value="&lt;span style=&quot;font-size: 16px;&quot;&gt;Company_ID&lt;/span&gt;" style="whiteSpace=wrap;html=1;align=center;fillColor=none;fontColor=light-dark(#000000,#000000);labelBorderColor=none;strokeColor=light-dark(#000000,#000000);" vertex="1" parent="1">
          <mxGeometry x="660" y="550" width="110" height="50" as="geometry" />
        </mxCell>
      </root>
    </mxGraphModel>
  </diagram>
</mxfile>
